<?xml version="1.0" encoding="UTF-8" standalone="no"?>
<svg
   xmlns:dc="http://purl.org/dc/elements/1.1/"
   xmlns:cc="http://creativecommons.org/ns#"
   xmlns:rdf="http://www.w3.org/1999/02/22-rdf-syntax-ns#"
   xmlns:svg="http://www.w3.org/2000/svg"
   xmlns="http://www.w3.org/2000/svg"
   viewBox="0 0 152.67999 82.573334"
   height="82.573334"
   width="152.67999"
   xml:space="preserve"
   id="svg2"
   version="1.1"><metadata
     id="metadata8"><rdf:RDF><cc:Work
         rdf:about=""><dc:format>image/svg+xml</dc:format><dc:type
           rdf:resource="http://purl.org/dc/dcmitype/StillImage" /></cc:Work></rdf:RDF></metadata><defs
     id="defs6" /><g
     transform="matrix(1.3333333,0,0,-1.3333333,0,82.573333)"
     id="g10"><g
       transform="scale(0.1)"
       id="g12"><path
         id="path14"
         style="fill:#cf181f;fill-opacity:1;fill-rule:nonzero;stroke:none"
         d="M 37.6211,590.059 H 0 V 612.5 H 101.43 V 590.059 H 63.5898 V 464.199 H 37.6211 v 125.86" /><path
         id="path16"
         style="fill:#cf181f;fill-opacity:1;fill-rule:nonzero;stroke:none"
         d="m 162.594,528.887 c 0.218,12.105 -4.621,26.406 -19.805,26.406 -14.523,0 -20.902,-14.961 -21.781,-26.406 z m -41.586,-18.262 c 0.437,-20.684 14.301,-28.605 30.144,-28.605 11.219,0 19.36,1.984 26.621,4.621 l 3.743,-18.043 c -8.364,-3.739 -20.461,-6.379 -34.325,-6.379 -32.566,0 -51.2691,21.121 -51.2691,53.91 0,31.242 17.6011,57.426 48.6291,57.426 31.023,0 42.465,-26.184 42.465,-51.27 0,-5.277 -0.438,-9.238 -0.879,-11.66 h -65.129" /><path
         id="path18"
         style="fill:#cf181f;fill-opacity:1;fill-rule:nonzero;stroke:none"
         d="m 279.188,467.059 c -4.836,-2.2 -14.739,-4.84 -26.622,-4.84 -31.023,0 -51.265,20.679 -51.265,54.566 0,32.125 20.679,56.551 55.668,56.551 8.797,0 17.601,-1.984 22.879,-4.402 l -4.399,-19.805 c -3.738,1.984 -9.465,3.742 -17.82,3.742 -19.145,0 -29.926,-15.402 -29.926,-35.203 0,-22.004 12.762,-34.77 29.926,-34.77 7.918,0 13.641,1.766 18.262,3.743 l 3.297,-19.582" /><path
         id="path20"
         style="fill:#cf181f;fill-opacity:1;fill-rule:nonzero;stroke:none"
         d="m 297.223,619.32 h 25.961 v -61.605 h 0.437 c 3.082,4.617 7.262,8.578 12.106,11.441 5.058,2.641 11.003,4.399 17.382,4.399 17.825,0 34.102,-12.539 34.102,-44.887 V 464.199 H 361.25 v 62.27 c 0,14.301 -4.617,25.742 -18.262,25.742 -9.242,0 -15.843,-6.16 -18.703,-14.52 -0.883,-2.421 -1.101,-5.503 -1.101,-8.14 V 464.199 H 297.223 V 619.32" /><path
         id="path22"
         style="fill:#cf181f;fill-opacity:1;fill-rule:nonzero;stroke:none"
         d="m 413.824,539.891 c 0,12.32 -0.441,22.004 -0.879,31.461 h 22.66 l 1.321,-14.961 h 0.437 c 4.844,8.363 15.844,17.164 31.692,17.164 18.257,0 34.757,-12.539 34.757,-43.785 v -65.571 h -25.96 v 62.711 c 0,14.082 -4.622,25.301 -18.043,25.301 -9.461,0 -16.286,-6.602 -18.7,-14.961 -0.882,-2.422 -1.324,-5.723 -1.324,-9.023 v -64.028 h -25.961 v 75.692" /><path
         id="path24"
         style="fill:#cf181f;fill-opacity:1;fill-rule:nonzero;stroke:none"
         d="m 574.211,481.141 c 14.301,0 22.664,16.945 22.664,36.746 0,16.504 -5.941,36.527 -22.664,36.527 -16.945,0 -23.102,-19.586 -23.102,-36.746 0,-19.801 8.137,-36.527 22.879,-36.527 z m -0.66,-19.145 c -27.946,0 -49.071,20.246 -49.071,55.231 0,36.304 22.004,56.328 50.387,56.328 29.051,0 48.629,-21.563 48.629,-55.008 0,-40.485 -26.184,-56.551 -49.726,-56.551 h -0.219" /><path
         id="path26"
         style="fill:#cf181f;fill-opacity:1;fill-rule:nonzero;stroke:none"
         d="m 644.387,464.199 h 25.957 V 619.32 h -25.957 z" /><path
         id="path28"
         style="fill:#cf181f;fill-opacity:1;fill-rule:nonzero;stroke:none"
         d="m 741.633,481.141 c 14.297,0 22.652,16.945 22.652,36.746 0,16.504 -5.933,36.527 -22.652,36.527 -16.953,0 -23.11,-19.586 -23.11,-36.746 0,-19.801 8.149,-36.527 22.883,-36.527 z m -0.664,-19.145 c -27.949,0 -49.067,20.246 -49.067,55.231 0,36.304 21.993,56.328 50.383,56.328 29.055,0 48.621,-21.563 48.621,-55.008 0,-40.485 -26.172,-56.551 -49.722,-56.551 h -0.215" /><path
         id="path30"
         style="fill:#cf181f;fill-opacity:1;fill-rule:nonzero;stroke:none"
         d="m 875.391,529.77 c 0,2.636 -0.223,5.277 -0.879,7.48 -2.422,8.801 -9.024,15.84 -19.153,15.84 -13.855,0 -23.316,-13.641 -23.316,-34.985 0,-19.8 8.582,-33.441 23.102,-33.441 8.585,0 16.066,5.277 18.925,14.738 0.879,2.864 1.321,6.383 1.321,9.465 z m 25.964,-50.829 c 0,-23.32 -4.402,-37.847 -14.746,-47.527 -9.898,-9.023 -23.98,-12.543 -38.504,-12.543 -12.539,0 -25.3,2.641 -33.664,7.481 l 5.5,20.027 c 6.164,-3.742 16.282,-7.262 27.942,-7.262 16.504,0 27.73,9.242 27.73,31.465 v 8.797 h -0.445 c -5.273,-8.797 -15.18,-14.52 -27.719,-14.52 -25.086,0 -41.59,22.664 -41.59,52.368 0,35.863 21.121,56.328 44.446,56.328 14.304,0 22.886,-7.262 27.73,-15.621 h 0.434 l 1.101,13.418 h 22.664 c -0.449,-7.7 -0.879,-16.938 -0.879,-31.684 v -60.727" /><path
         id="path32"
         style="fill:#cf181f;fill-opacity:1;fill-rule:nonzero;stroke:none"
         d="m 944.902,571.352 17.16,-57.645 c 1.981,-6.824 3.961,-14.523 5.282,-20.465 h 0.652 c 1.547,5.942 3.305,13.641 5.07,20.465 l 14.961,57.645 h 27.063 l -24.863,-74.149 c -11.875,-34.984 -21.125,-54.348 -33.442,-66.449 -10.125,-9.68 -20.68,-13.641 -26.629,-14.524 l -6.601,22.008 c 4.843,1.317 10.34,4.18 15.398,8.36 4.848,3.738 10.129,9.902 13.203,16.504 1.106,1.976 1.543,3.519 1.543,4.836 0,1.101 -0.215,2.644 -1.094,4.839 l -36.089,98.575 h 28.386" /><path
         id="path34"
         style="fill:#f1511b;fill-opacity:1;fill-rule:nonzero;stroke:none"
         d="m 77.8906,304.926 -10.1211,35.863 c -2.4218,9.465 -4.8437,20.465 -6.8203,29.707 h -0.4414 c -1.9805,-9.242 -4.4062,-20.684 -6.6016,-29.707 L 43.7852,304.926 Z M 39.8242,285.129 28.6016,244.199 H 2.19922 L 45.5469,392.5 H 77.8906 L 120.797,244.199 H 93.5117 l -11.6601,40.93 H 39.8242" /><path
         id="path36"
         style="fill:#f1511b;fill-opacity:1;fill-rule:nonzero;stroke:none"
         d="m 138.16,318.129 c 0,12.984 -0.441,23.766 -0.879,33.223 h 22.442 l 1.097,-19.141 h 0.879 c 4.844,13.863 16.285,21.344 26.848,21.344 2.641,0 4.18,-0.219 5.941,-0.442 v -25.082 c -1.984,0.442 -3.961,0.66 -7.043,0.66 -11.437,0 -20.023,-7.699 -22.664,-19.804 -0.441,-2.418 -0.66,-5.5 -0.66,-8.797 V 244.199 H 138.16 v 73.93" /><path
         id="path38"
         style="fill:#f1511b;fill-opacity:1;fill-rule:nonzero;stroke:none"
         d="m 245.957,378.637 v -27.285 h 24.203 v -19.141 h -24.203 v -49.945 c 0,-12.981 3.965,-18.704 12.984,-18.704 4.18,0 6.602,0.215 9.461,1.094 l 0.66,-20.019 c -3.96,-1.317 -10.562,-2.418 -18.48,-2.418 -9.242,0 -16.945,2.859 -21.781,8.14 -5.727,5.942 -8.367,15.176 -8.367,29.707 v 52.145 h -14.52 v 19.141 h 14.52 v 19.586 l 25.523,7.699" /><path
         id="path40"
         style="fill:#f1511b;fill-opacity:1;fill-rule:nonzero;stroke:none"
         d="m 287.309,268.184 c 5.503,-3.301 15.625,-7.043 24.644,-7.043 10.781,0 16.067,4.843 16.067,12.101 0,7.039 -3.961,11.004 -16.286,16.063 -19.363,7.922 -27.062,18.922 -27.062,31.246 0,18.703 14.961,33.004 38.289,33.004 10.777,0 20.019,-2.864 25.961,-6.164 l -5.285,-18.481 c -4.399,2.641 -11.879,5.723 -20.239,5.723 -9.242,0 -14.082,-4.844 -14.082,-11.227 0,-6.594 4.399,-9.894 16.946,-15.179 18.039,-7.481 26.621,-17.602 26.621,-32.563 0,-20.242 -15.184,-33.445 -41.149,-33.445 -11.441,0 -22.664,2.859 -29.484,7.039 l 5.059,18.926" /><path
         id="path42"
         style="fill:#b31a93;fill-opacity:1;fill-rule:nonzero;stroke:none"
         d="m 415.566,272.363 c 7.7,-4.621 19.801,-8.359 31.907,-8.359 16.504,0 25.742,8.133 25.742,20.242 0,11.442 -7.485,18.039 -24.426,25.305 -22.004,9.238 -36.305,22.879 -36.305,42.683 0,23.762 18.704,42.246 49.727,42.246 14.082,0 25.086,-3.3 31.465,-6.597 l -5.723,-21.567 c -5.058,2.637 -14.082,6.379 -26.398,6.379 -16.067,0 -23.11,-9.019 -23.11,-17.824 0,-11.437 7.926,-16.719 26.41,-24.863 23.543,-10.559 34.543,-23.977 34.543,-43.563 0,-24.64 -18.265,-44.226 -53.246,-44.226 -14.304,0 -28.828,4.176 -35.871,8.355 l 5.285,21.789" /><path
         id="path44"
         style="fill:#b31a93;fill-opacity:1;fill-rule:nonzero;stroke:none"
         d="m 593.984,247.059 c -4.839,-2.207 -14.742,-4.84 -26.621,-4.84 -31.023,0 -51.269,20.679 -51.269,54.566 0,32.125 20.683,56.551 55.668,56.551 8.8,0 17.601,-1.984 22.883,-4.402 l -4.403,-19.801 c -3.738,1.98 -9.461,3.738 -17.82,3.738 -19.141,0 -29.922,-15.402 -29.922,-35.207 0,-22 12.758,-34.766 29.922,-34.766 7.922,0 13.64,1.758 18.262,3.743 l 3.3,-19.582" /><path
         id="path46"
         style="fill:#b31a93;fill-opacity:1;fill-rule:nonzero;stroke:none"
         d="M 612.016,244.199 V 351.352 H 637.98 V 244.199 Z m 12.757,122.34 c -8.355,0 -14.082,6.156 -14.082,14.301 0,8.14 5.946,14.301 14.528,14.301 8.582,0 14.301,-5.942 14.301,-14.301 0,-8.145 -5.719,-14.301 -14.52,-14.301 h -0.227" /><path
         id="path48"
         style="fill:#b31a93;fill-opacity:1;fill-rule:nonzero;stroke:none"
         d="m 725.762,308.887 c 0.222,12.105 -4.617,26.406 -19.805,26.406 -14.519,0 -20.898,-14.961 -21.785,-26.406 z m -41.59,-18.262 c 0.445,-20.684 14.305,-28.605 30.152,-28.605 11.211,0 19.36,1.984 26.621,4.621 l 3.735,-18.039 c -8.364,-3.75 -20.45,-6.383 -34.321,-6.383 -32.566,0 -51.265,21.121 -51.265,53.91 0,31.242 17.594,57.426 48.633,57.426 31.011,0 42.461,-26.184 42.461,-51.27 0,-5.277 -0.442,-9.238 -0.879,-11.66 h -65.137" /><path
         id="path50"
         style="fill:#b31a93;fill-opacity:1;fill-rule:nonzero;stroke:none"
         d="m 770.41,319.891 c 0,12.32 -0.437,22.004 -0.879,31.461 h 22.664 l 1.313,-14.961 h 0.445 c 4.848,8.367 15.844,17.164 31.684,17.164 18.258,0 34.761,-12.539 34.761,-43.785 v -65.571 h -25.957 v 62.711 c 0,14.082 -4.629,25.301 -18.046,25.301 -9.461,0 -16.29,-6.602 -18.7,-14.961 -0.886,-2.422 -1.316,-5.723 -1.316,-9.023 V 244.199 H 770.41 v 75.692" /><path
         id="path52"
         style="fill:#b31a93;fill-opacity:1;fill-rule:nonzero;stroke:none"
         d="m 958.953,247.059 c -4.832,-2.207 -14.734,-4.84 -26.617,-4.84 -31.02,0 -51.274,20.679 -51.274,54.566 0,32.125 20.684,56.551 55.676,56.551 8.797,0 17.61,-1.984 22.879,-4.402 l -4.39,-19.801 c -3.75,1.98 -9.465,3.738 -17.832,3.738 -19.141,0 -29.922,-15.402 -29.922,-35.207 0,-22 12.761,-34.766 29.922,-34.766 7.925,0 13.652,1.758 18.257,3.743 l 3.301,-19.582" /><path
         id="path54"
         style="fill:#b31a93;fill-opacity:1;fill-rule:nonzero;stroke:none"
         d="m 1036.18,308.887 c 0.23,12.105 -4.61,26.406 -19.8,26.406 -14.51,0 -20.9,-14.961 -21.778,-26.406 z m -41.578,-18.262 c 0.437,-20.684 14.298,-28.605 30.148,-28.605 11.22,0 19.36,1.984 26.62,4.621 l 3.74,-18.039 c -8.36,-3.75 -20.46,-6.383 -34.32,-6.383 -32.575,0 -51.27,21.121 -51.27,53.91 0,31.242 17.597,57.426 48.62,57.426 31.03,0 42.48,-26.184 42.48,-51.27 0,-5.277 -0.45,-9.238 -0.88,-11.66 h -65.138" /><path
         id="path56"
         style="fill:#b31a93;fill-opacity:1;fill-rule:nonzero;stroke:none"
         d="m 1079.51,268.184 c 5.5,-3.301 15.63,-7.043 24.64,-7.043 10.79,0 16.07,4.843 16.07,12.101 0,7.039 -3.96,11.004 -16.28,16.063 -19.36,7.922 -27.06,18.922 -27.06,31.246 0,18.703 14.96,33.004 38.29,33.004 10.78,0 20.02,-2.864 25.95,-6.164 l -5.28,-18.481 c -4.4,2.641 -11.88,5.723 -20.24,5.723 -9.24,0 -14.09,-4.844 -14.09,-11.227 0,-6.594 4.41,-9.894 16.95,-15.179 18.04,-7.481 26.63,-17.602 26.63,-32.563 0,-20.242 -15.19,-33.445 -41.15,-33.445 -11.45,0 -22.66,2.859 -29.49,7.039 l 5.06,18.926" /><path
         id="path58"
         style="fill:#050606;fill-opacity:1;fill-rule:nonzero;stroke:none"
         d="M 36.9648,122.781 H 1.09766 v 27.715 H 105.391 V 122.781 H 69.0859 V 2.19531 H 36.9648 V 122.781" /><path
         id="path60"
         style="fill:#050606;fill-opacity:1;fill-rule:nonzero;stroke:none"
         d="M 161.047,150.496 V 92.6367 h 47.746 v 57.8593 h 32.125 V 2.19531 H 208.793 V 64.2461 H 161.047 V 2.19531 H 128.922 V 150.496 h 32.125" /><path
         id="path62"
         style="fill:#050606;fill-opacity:1;fill-rule:nonzero;stroke:none"
         d="m 323.832,150.496 h 31.906 V 84.4922 h 0.657 c 2.863,5.9453 5.945,11.668 9.246,17.1558 l 29.261,48.848 h 38.504 L 388.965,86.9141 435.391,2.19531 H 398.645 L 366.52,65.3516 355.738,50.8281 V 2.19531 H 323.832 V 150.496" /><path
         id="path64"
         style="fill:#050606;fill-opacity:1;fill-rule:nonzero;stroke:none"
         d="m 518.988,124.98 c -8.136,0 -14.519,6.602 -14.519,15.184 0,8.574 6.601,14.965 14.961,14.965 8.136,0 14.3,-6.391 14.3,-14.965 0,-8.582 -6.164,-15.184 -14.3,-15.184 z M 497.645,23.3281 c 11.882,0 18.484,14.5157 18.484,32.7735 0,15.625 -5.059,32.5781 -18.484,32.5781 -14.52,0 -19.364,-16.9531 -19.364,-32.5781 0,-18.4727 6.383,-32.7735 19.145,-32.7735 z M 475.199,124.98 c -8.359,0 -14.961,6.602 -14.961,15.184 0,8.574 6.602,14.965 15.184,14.965 7.922,0 14.305,-6.391 14.305,-14.965 0,-8.582 -6.165,-15.184 -14.305,-15.184 z M 496.77,0 c -29.708,0 -51.274,20.6836 -51.274,55.4492 0,35.6446 22.223,56.5548 52.809,56.5548 30.367,0 50.386,-22.2306 50.386,-55.2384 C 548.691,15.8477 521.852,0 496.988,0 h -0.218" /><path
         id="path66"
         style="fill:#050606;fill-opacity:1;fill-rule:nonzero;stroke:none"
         d="m 574.629,2.19531 h 32.1289 v 155.129 H 574.629 Z" /><path
         id="path68"
         style="fill:#050606;fill-opacity:1;fill-rule:nonzero;stroke:none"
         d="m 638.43,75.9062 c 0,12.9883 -0.442,23.9844 -0.879,33.8908 h 27.722 l 1.543,-14.0822 h 0.657 c 4.629,7.2622 15.183,16.2892 31.25,16.2892 21.558,0 35.64,-15.1876 35.64,-44.4532 V 2.19531 H 702.234 V 64.2461 c 0,12.3242 -4.175,21.5625 -15.172,21.5625 -7.929,0 -12.992,-5.4961 -15.187,-11.6602 -0.879,-2.1953 -1.316,-5.4961 -1.316,-8.7968 V 2.19531 H 638.43 V 75.9062" /></g></g></svg>